<svg xmlns="http://www.w3.org/2000/svg" width="27.421" height="27.419" viewBox="0 0 27.421 27.419"><g transform="translate(0.505 0.505)"><path d="M24.048,13.2,26.234,10.4a.825.825,0,0,0-.341-1.271l-3.3-1.341.485-3.525a.825.825,0,0,0-.93-.93l-3.526.485L17.284.515A.825.825,0,0,0,16.01.174L13.2,2.359,10.4.174A.825.825,0,0,0,9.126.515l-1.344,3.3L4.256,3.326a.825.825,0,0,0-.93.93l.485,3.526L.515,9.122A.825.825,0,0,0,.174,10.4L2.36,13.2.174,16.007a.825.825,0,0,0,.341,1.271l3.3,1.344-.485,3.525a.825.825,0,0,0,.93.93l3.526-.485,1.341,3.3a.825.825,0,0,0,1.271.341l2.809-2.19,2.806,2.186a.825.825,0,0,0,.508.174.816.816,0,0,0,.213-.028.825.825,0,0,0,.551-.487l1.341-3.3,3.525.485a.825.825,0,0,0,.93-.93l-.485-3.526,3.3-1.341a.825.825,0,0,0,.341-1.271Z" transform="translate(0.002 0.002)" fill="#8ac43e" stroke="#75ae2a" stroke-width="1"/><g transform="translate(6.649 8.113)"><path d="M7.228,14.192a.669.669,0,0,1-.947,0L2.5,10.411a1,1,0,0,1,0-1.42l.473-.473a1,1,0,0,1,1.42,0l2.36,2.36L13.132,4.5a1,1,0,0,1,1.42,0l.473.473a1,1,0,0,1,0,1.42Z" transform="translate(-2.208 -4.207)" fill="#fff"/></g></g></svg>